<svg xmlns="http://www.w3.org/2000/svg" width="151.975" height="44.233" viewBox="0 0 151.975 44.233"><g id="Group_9" data-name="Group 9" transform="translate(-543.126 1108.594)"><g id="MOBILITY" transform="translate(604.872 -1074.982)" style="isolation: isolate"><g id="Group_4" data-name="Group 4" style="isolation: isolate"><path id="Path_55" data-name="Path 55" d="M1207.028-745.841h.951l2.485,5.552,2.485-5.552h.942v6.717h-.884v-5.009l-2.232,5.009h-.621l-2.242-5.019v5.019h-.883Z" transform="translate(-1207.028 745.967)" fill="#013558"></path><path id="Path_56" data-name="Path 56" d="M1370.637-740.287a3.337,3.337,0,0,1-3.4-3.456,3.337,3.337,0,0,1,3.4-3.456,3.332,3.332,0,0,1,3.4,3.456A3.332,3.332,0,0,1,1370.637-740.287Zm0-.767a2.471,2.471,0,0,0,2.495-2.689,2.466,2.466,0,0,0-2.495-2.689,2.466,2.466,0,0,0-2.495,2.689A2.471,2.471,0,0,0,1370.637-741.054Z" transform="translate(-1352.339 747.198)" fill="#013558"></path><path id="Path_57" data-name="Path 57" d="M1529.243-739.6h-2.524v-6.766h2.427c1.427,0,2.145.777,2.145,1.718a1.583,1.583,0,0,1-1.184,1.563,1.689,1.689,0,0,1,1.34,1.67C1531.446-740.393,1530.641-739.6,1529.243-739.6Zm-.175-6.038H1527.6v2.194h1.485c.825,0,1.3-.408,1.3-1.1C1530.388-745.208,1529.932-745.635,1529.068-745.635Zm.068,2.922H1527.6v2.388h1.563c.874,0,1.4-.437,1.4-1.175S1530-742.713,1529.136-742.713Z" transform="translate(-1496.986 746.441)" fill="#013558"></path><path id="Path_58" data-name="Path 58" d="M1664.593-746.363h.883v6.766h-.883Z" transform="translate(-1622.037 746.441)" fill="#013558"></path><path id="Path_59" data-name="Path 59" d="M1765.046-746.363v6.047h2.369v.718h-3.252v-6.766Z" transform="translate(-1712.347 746.441)" fill="#013558"></path><path id="Path_60" data-name="Path 60" d="M1883.146-746.363h.883v6.766h-.883Z" transform="translate(-1820.264 746.441)" fill="#013558"></path><path id="Path_61" data-name="Path 61" d="M1978.229-746.363h4.582v.718h-1.844v6.047h-.883v-6.047h-1.854Z" transform="translate(-1906.503 746.441)" fill="#013558"></path><path id="Path_62" data-name="Path 62" d="M2107.021-746.363h.98l1.67,3.427,1.669-3.427h.98l-2.2,4.213v2.553h-.883v-2.553Z" transform="translate(-2023.317 746.441)" fill="#013558"></path></g></g><g id="Group_5" data-name="Group 5" transform="translate(604.976 -1101.468)" style="isolation: isolate"><path id="Path_63" data-name="Path 63" d="M1222.959-1028.618l-9.772,14.689h9.772v3.672h-14.813v-3.361l9.71-14.689h-9.71v-3.672h14.813Z" transform="translate(-1208.146 1031.979)" fill="#013558"></path></g><g id="Group_6" data-name="Group 6" transform="translate(627.384 -1101.499)" style="isolation: isolate"><path id="Path_64" data-name="Path 64" d="M1463.735-1014.7h-8.651l-1.432,4.139h-4.575l7.811-21.753h5.073l7.811,21.753h-4.606Zm-4.326-12.573-3.143,9.087h6.286Z" transform="translate(-1449.077 1032.314)" fill="#e5b600"></path></g><g id="Group_7" data-name="Group 7" transform="translate(655.672 -1101.468)" style="isolation: isolate"><path id="Path_65" data-name="Path 65" d="M1761.227-1018.6h-3.641v8.34h-4.357v-21.722h8c5.228,0,7.842,2.956,7.842,6.722C1769.069-1021.958,1766.829-1018.6,1761.227-1018.6Zm-.187-3.517c2.458,0,3.548-1.214,3.548-3.143,0-1.992-1.089-3.174-3.548-3.174h-3.454v6.317Z" transform="translate(-1753.229 1031.979)" fill="#013558"></path><path id="Path_66" data-name="Path 66" d="M2014.852-1018.6h-3.641v8.34h-4.357v-21.722h8c5.228,0,7.842,2.956,7.842,6.722C2022.694-1021.958,2020.454-1018.6,2014.852-1018.6Zm-.187-3.517c2.458,0,3.547-1.214,3.547-3.143,0-1.992-1.089-3.174-3.547-3.174h-3.455v6.317Z" transform="translate(-1983.266 1031.979)" fill="#013558"></path></g><g id="Path_50" data-name="Path 50" transform="translate(556.762 -1105.619)"><path id="Path_67" data-name="Path 67" d="M717.515-1046.679a21.919,21.919,0,0,1-27.775,9.581c.479-.958.838-1.794,1.318-2.752a19.024,19.024,0,0,0,23.824-8.5,18.7,18.7,0,0,0-4.672-23.784c-.157.261-.67.974-.8,1.191l-4.021-.027c1.147-1.842,2.677-3.986,3.749-5.639A21.9,21.9,0,0,1,717.515-1046.679Z" transform="translate(-689.74 1076.609)" fill="#013558"></path></g><g id="Path_51" data-name="Path 51" transform="translate(543.126 -1108.594)"><path id="Path_68" data-name="Path 68" d="M554.952-1073.294l3.817.3c-1.262,2.083-2.617,4.056-3.843,6.186a22.258,22.258,0,0,1-9.178-30.065,21.948,21.948,0,0,1,28.015-9.938c-.359.958-.838,1.911-1.2,2.87a18.694,18.694,0,0,0-15.8.48,18.71,18.71,0,0,0-8.859,9.335c-3.711,8.383-.591,18.192,5.833,22.61C553.918-1071.8,554.777-1073.037,554.952-1073.294Z" transform="translate(-543.126 1108.594)" fill="#013558"></path></g><g id="Path_52" data-name="Path 52" transform="translate(556.403 -1098.913)"><path id="Path_69" data-name="Path 69" d="M699.908-1004.5l-2.2,3.354H685.879v-3.354Z" transform="translate(-685.879 1004.504)" fill="#e5b600"></path></g><g id="Path_53" data-name="Path 53" transform="translate(560.567 -1077.105)"><path id="Path_70" data-name="Path 70" d="M732.867-770.018l-2.217,3.354H746.9v-3.354Z" transform="translate(-730.65 770.018)" fill="#e5b600"></path></g><g id="Path_54" data-name="Path 54" transform="translate(572.411 -1100.23)"><path id="Path_71" data-name="Path 71" d="M858-1018.663" transform="translate(-858.002 1018.663)" fill="none" stroke="#000" stroke-miterlimit="10" stroke-width="0.1"></path></g><g id="Path_55-2" data-name="Path 55" transform="translate(577.976 -1100.23)"><path id="Path_72" data-name="Path 72" d="M917.835-1018.663" transform="translate(-917.835 1018.663)" fill="none" stroke="#000" stroke-miterlimit="10" stroke-width="0.1"></path></g><g id="Path_56-2" data-name="Path 56" transform="translate(555.419 -1098.971)"><path id="Path_73" data-name="Path 73" d="M679.188-980.117l-3.889-.212,16.318-24.745,4.067-.058Z" transform="translate(-675.299 1005.131)" fill="#e5b600"></path></g><g id="Path_57-2" data-name="Path 57" transform="translate(567.841 -1094.977)"><path id="Path_74" data-name="Path 74" d="M808.862-962.188" transform="translate(-808.862 962.188)"></path></g></g></svg>